#!OML:ASF E:\Mandelcareful walks\Project 1\Capture day 1\Session 1\Subject1.ASF
:FULLY-SPECIFIED
:DEGREES
765
root -13.3553 16.7618 4.75376 -0.165571 227.825 1.49098
lowerback -3.1403 2.33023 -1.60484
upperback 4.03626 3.08238 1.26083
thorax 5.79226 1.398 2.45214
lowerneck -21.7677 3.6711 -3.55706
upperneck 45.193 4.56569 -0.58176
head 22.8347 -0.124981 1.07522
rclavicle -9.31803e-015 1.76918e-014
rhumerus -44.4916 13.2993 -85.3281
rradius 72.2574
rwrist -29.246
rhand -11.2345 -14.6375
rfingers 7.12502
rthumb 14.7946 -44.0895
lclavicle -9.31803e-015 1.76918e-014
lhumerus -58.7759 -11.6444 96.0503
lradius 54.1796
lwrist 15.8799
lhand -22.1984 -14.4756
lfingers 7.12502
lthumb 4.21719 15.4624
rfemur 0.268443 -4.96528 17.2087
rtibia 37.9947
rfoot -6.05217 -9.27693
rtoes -4.20623
lfemur -25.9679 -7.12797 -8.73787
ltibia 28.7607
lfoot -26.9218 16.6865
ltoes -0.817725
766
root -13.7553 16.7132 4.59234 -0.651809 227.146 1.3734
lowerback -3.15043 2.55342 -1.58348
upperback 4.33652 3.38322 1.03729
thorax 6.11412 1.54117 2.24166
lowerneck -21.9812 3.59165 -3.60116
upperneck 44.7829 4.36996 -0.137356
head 22.5262 -0.090024 1.29411
rclavicle -6.89907e-014 1.2424e-014
rhumerus -44.0624 12.8542 -85.4072
rradius 72.3631
rwrist -29.4918
rhand -11.3494 -14.1981
rfingers 7.12502
rthumb 14.6839 -43.6581
lclavicle -6.89907e-014 1.2424e-014
lhumerus -58.8865 -12.8124 95.7715
lradius 54.2648
lwrist 15.7021
lhand -21.0018 -14.8397
lfingers 7.12502
lthumb 5.3726 15.0722
rfemur 0.13471 -5.55955 15.9512
rtibia 41.3682
rfoot -4.16517 -8.95509
rtoes -0.629917
lfemur -24.4811 -5.6778 -9.53277
ltibia 28.1177
lfoot -26.0615 15.2043
ltoes -4.20656
767
root -14.1354 16.6419 4.44118 -0.689519 226.615 0.755911
lowerback -2.65628 2.71376 -2.19077
upperback 4.30717 3.63264 0.850892
thorax 5.76325 1.64828 2.37635
lowerneck -21.7136 3.56591 -3.61181
upperneck 44.725 4.13478 0.27328
head 21.9519 -0.074311 1.39407
rclavicle 5.15349e-014 -1.29707e-014
rhumerus -44.1064 12.3414 -85.4282
rradius 72.3585
rwrist -29.5296
rhand -11.3799 -14.0677
rfingers 7.12502
rthumb 14.6545 -43.5298
lclavicle 5.15349e-014 -1.29707e-014
lhumerus -59.0596 -14.2945 95.7942
lradius 54.3348
lwrist 15.7928
lhand -21.6723 -15.2724
lfingers 7.12502
lthumb 4.72516 14.6549
rfemur -0.773236 -6.32564 14.3517
rtibia 45.8306
rfoot -3.05711 -8.55034
rtoes 3.70248
lfemur -23.6652 -4.05059 -10.6487
ltibia 28.2575
lfoot -22.9009 14.4618
ltoes -8.94965
768
root -14.4982 16.5222 4.3022 -2.55886 226.193 1.72551
lowerback -1.09541 2.65078 -1.89008
upperback 4.32774 3.46609 1.25442
thorax 4.89355 1.57848 2.53062
lowerneck -21.6152 3.64959 -3.6048
upperneck 44.3597 4.48877 -0.0986389
head 21.6535 0.0311873 1.27674
rclavicle 7.55382e-015 9.93923e-016
rhumerus -44.2851 12.7055 -85.1994
rradius 72.2267
rwrist -29.6174
rhand -11.3221 -14.4075
rfingers 7.12502
rthumb 14.7102 -43.8656
lclavicle 7.55382e-015 9.93923e-016
lhumerus -59.2872 -15.4469 95.945
lradius 54.6079
lwrist 16.0053
lhand -21.4622 -15.4135
lfingers 7.12502
lthumb 4.92811 14.5092
rfemur -1.22146 -6.92166 14.0476
rtibia 50.4838
rfoot -2.05578 -8.62994
rtoes 5.34374
lfemur -22.4846 -2.08296 -10.6858
ltibia 29.4694
lfoot -17.7224 13.5585
ltoes -12.5882
769
root -14.8566 16.3849 4.16789 -3.19886 225.803 0.72785
lowerback 0.958776 2.46286 -3.21897
upperback 4.13036 3.17933 1.45821
thorax 3.46002 1.41079 3.36232
lowerneck -21.1254 3.86485 -3.84829
upperneck 44.2517 4.93649 -0.237918
head 21.4014 0.124538 1.33146
rclavicle -9.83984e-014 5.36719e-015
rhumerus -44.8487 13.3692 -85.0721
rradius 71.6419
rwrist -29.3982
rhand -11.239 -14.7091
rfingers 7.12502
rthumb 14.7902 -44.1613
lclavicle -9.83984e-014 5.36719e-015
lhumerus -59.4956 -16.2323 96.2517
lradius 54.5267
lwrist 16.4858
lhand -22.9777 -15.7563
lfingers 7.12502
lthumb 3.46466 14.1953
rfemur -1.80534 -7.42354 12.2213
rtibia 55.5155
rfoot -1.68568 -9.16224
rtoes 3.21601
lfemur -21.3873 -0.268105 -12.2565
ltibia 31.3624
lfoot -10.6269 13.9286
ltoes -9.82644
770
root -15.2083 16.24 4.04082 -3.54234 225.643 -1.14319
lowerback 3.26174 2.34188 -4.91904
upperback 4.19066 2.8961 1.36419
thorax 2.18119 1.24054 4.11713
lowerneck -20.8016 3.91395 -4.07396
upperneck 44.1053 5.13012 -0.385898
head 21.1871 0.13332 1.3249
rclavicle -1.49834e-014 -1.63003e-014
rhumerus -45.1128 13.3199 -85.0249
rradius 70.7062
rwrist -28.7014
rhand -10.939 -15.2688
rfingers 7.12502
rthumb 15.0793 -44.6996
lclavicle -1.49834e-014 -1.63003e-014
lhumerus -58.8209 -17.1136 96.1429
lradius 54.1329
lwrist 16.9473
lhand -24.1851 -15.7387
lfingers 7.12502
lthumb 2.29862 14.2287
rfemur -2.09593 -7.93634 9.66256
rtibia 60.4554
rfoot -2.47883 -10.6902
rtoes 0.938931
lfemur -20.0077 1.41341 -14.5807
ltibia 33.63
lfoot -9.33983 12.7282
ltoes -11.4925
